<svg id="visual" viewBox="0 0 1600 450" width="1600" height="450" xmlns="http://www.w3.org/2000/svg" xmlns:xlink="http://www.w3.org/1999/xlink" version="1.1"><path d="M0 82L24.2 81.3C48.3 80.7 96.7 79.3 145.2 73.3C193.7 67.3 242.3 56.7 290.8 52.2C339.3 47.7 387.7 49.3 436.2 53.2C484.7 57 533.3 63 581.8 66.7C630.3 70.3 678.7 71.7 727.2 73.2C775.7 74.7 824.3 76.3 872.8 71.2C921.3 66 969.7 54 1018.2 47.2C1066.7 40.3 1115.3 38.7 1163.8 44.7C1212.3 50.7 1260.7 64.3 1309.2 71.2C1357.7 78 1406.3 78 1454.8 71.2C1503.3 64.3 1551.7 50.7 1575.8 43.8L1600 37L1600 0L1575.8 0C1551.7 0 1503.3 0 1454.8 0C1406.3 0 1357.7 0 1309.2 0C1260.7 0 1212.3 0 1163.8 0C1115.3 0 1066.7 0 1018.2 0C969.7 0 921.3 0 872.8 0C824.3 0 775.7 0 727.2 0C678.7 0 630.3 0 581.8 0C533.3 0 484.7 0 436.2 0C387.7 0 339.3 0 290.8 0C242.3 0 193.7 0 145.2 0C96.7 0 48.3 0 24.2 0L0 0Z" fill="#c6c1b5"></path><path d="M0 150L24.2 148.5C48.3 147 96.7 144 145.2 138.7C193.7 133.3 242.3 125.7 290.8 126.3C339.3 127 387.7 136 436.2 135.3C484.7 134.7 533.3 124.3 581.8 128.2C630.3 132 678.7 150 727.2 160.5C775.7 171 824.3 174 872.8 171.7C921.3 169.3 969.7 161.7 1018.2 149.7C1066.7 137.7 1115.3 121.3 1163.8 117.7C1212.3 114 1260.7 123 1309.2 129.7C1357.7 136.3 1406.3 140.7 1454.8 136.8C1503.3 133 1551.7 121 1575.8 115L1600 109L1600 35L1575.8 41.8C1551.7 48.7 1503.3 62.3 1454.8 69.2C1406.3 76 1357.7 76 1309.2 69.2C1260.7 62.3 1212.3 48.7 1163.8 42.7C1115.3 36.7 1066.7 38.3 1018.2 45.2C969.7 52 921.3 64 872.8 69.2C824.3 74.3 775.7 72.7 727.2 71.2C678.7 69.7 630.3 68.3 581.8 64.7C533.3 61 484.7 55 436.2 51.2C387.7 47.3 339.3 45.7 290.8 50.2C242.3 54.7 193.7 65.3 145.2 71.3C96.7 77.3 48.3 78.7 24.2 79.3L0 80Z" fill="#bbb3a5"></path><path d="M0 258L24.2 260.2C48.3 262.3 96.7 266.7 145.2 273.3C193.7 280 242.3 289 290.8 284.5C339.3 280 387.7 262 436.2 259C484.7 256 533.3 268 581.8 274.8C630.3 281.7 678.7 283.3 727.2 277.3C775.7 271.3 824.3 257.7 872.8 261.3C921.3 265 969.7 286 1018.2 289C1066.7 292 1115.3 277 1163.8 262.8C1212.3 248.7 1260.7 235.3 1309.2 233.8C1357.7 232.3 1406.3 242.7 1454.8 240.3C1503.3 238 1551.7 223 1575.8 215.5L1600 208L1600 107L1575.8 113C1551.7 119 1503.3 131 1454.8 134.8C1406.3 138.7 1357.7 134.3 1309.2 127.7C1260.7 121 1212.3 112 1163.8 115.7C1115.3 119.3 1066.7 135.7 1018.2 147.7C969.7 159.7 921.3 167.3 872.8 169.7C824.3 172 775.7 169 727.2 158.5C678.7 148 630.3 130 581.8 126.2C533.3 122.3 484.7 132.7 436.2 133.3C387.7 134 339.3 125 290.8 124.3C242.3 123.7 193.7 131.3 145.2 136.7C96.7 142 48.3 145 24.2 146.5L0 148Z" fill="#b0a695"></path><path d="M0 334L24.2 331.8C48.3 329.7 96.7 325.3 145.2 323.8C193.7 322.3 242.3 323.7 290.8 318.3C339.3 313 387.7 301 436.2 302.5C484.7 304 533.3 319 581.8 322.8C630.3 326.7 678.7 319.3 727.2 311.8C775.7 304.3 824.3 296.7 872.8 308.7C921.3 320.7 969.7 352.3 1018.2 353.2C1066.7 354 1115.3 324 1163.8 304.5C1212.3 285 1260.7 276 1309.2 282C1357.7 288 1406.3 309 1454.8 305.2C1503.3 301.3 1551.7 272.7 1575.8 258.3L1600 244L1600 206L1575.8 213.5C1551.7 221 1503.3 236 1454.8 238.3C1406.3 240.7 1357.7 230.3 1309.2 231.8C1260.7 233.3 1212.3 246.7 1163.8 260.8C1115.3 275 1066.7 290 1018.2 287C969.7 284 921.3 263 872.8 259.3C824.3 255.7 775.7 269.3 727.2 275.3C678.7 281.3 630.3 279.7 581.8 272.8C533.3 266 484.7 254 436.2 257C387.7 260 339.3 278 290.8 282.5C242.3 287 193.7 278 145.2 271.3C96.7 264.7 48.3 260.3 24.2 258.2L0 256Z" fill="#999080"></path><path d="M0 451L24.2 451C48.3 451 96.7 451 145.2 451C193.7 451 242.3 451 290.8 451C339.3 451 387.7 451 436.2 451C484.7 451 533.3 451 581.8 451C630.3 451 678.7 451 727.2 451C775.7 451 824.3 451 872.8 451C921.3 451 969.7 451 1018.2 451C1066.7 451 1115.3 451 1163.8 451C1212.3 451 1260.7 451 1309.2 451C1357.7 451 1406.3 451 1454.8 451C1503.3 451 1551.7 451 1575.8 451L1600 451L1600 242L1575.8 256.3C1551.7 270.7 1503.3 299.3 1454.8 303.2C1406.3 307 1357.7 286 1309.2 280C1260.7 274 1212.3 283 1163.8 302.5C1115.3 322 1066.7 352 1018.2 351.2C969.7 350.3 921.3 318.7 872.8 306.7C824.3 294.7 775.7 302.3 727.2 309.8C678.7 317.3 630.3 324.7 581.8 320.8C533.3 317 484.7 302 436.2 300.5C387.7 299 339.3 311 290.8 316.3C242.3 321.7 193.7 320.3 145.2 321.8C96.7 323.3 48.3 327.7 24.2 329.8L0 332Z" fill="#827a6c"></path></svg>