<svg id="visual" viewBox="0 0 1600 600" width="1600" height="600" xmlns="http://www.w3.org/2000/svg" xmlns:xlink="http://www.w3.org/1999/xlink" version="1.1"><path d="M0 253L24.2 229C48.3 205 96.7 157 145.2 156C193.7 155 242.3 201 290.8 210C339.3 219 387.7 191 436.2 164C484.7 137 533.3 111 581.8 110C630.3 109 678.7 133 727.2 145C775.7 157 824.3 157 872.8 152C921.3 147 969.7 137 1018.2 125C1066.7 113 1115.3 99 1163.8 121C1212.3 143 1260.7 201 1309.2 220C1357.7 239 1406.3 219 1454.8 217C1503.3 215 1551.7 231 1575.8 239L1600 247L1600 0L1575.8 0C1551.7 0 1503.3 0 1454.8 0C1406.3 0 1357.7 0 1309.2 0C1260.7 0 1212.3 0 1163.8 0C1115.3 0 1066.7 0 1018.2 0C969.7 0 921.3 0 872.8 0C824.3 0 775.7 0 727.2 0C678.7 0 630.3 0 581.8 0C533.3 0 484.7 0 436.2 0C387.7 0 339.3 0 290.8 0C242.3 0 193.7 0 145.2 0C96.7 0 48.3 0 24.2 0L0 0Z" fill="#dbdfe1"></path><path d="M0 343L24.2 318C48.3 293 96.7 243 145.2 243C193.7 243 242.3 293 290.8 305C339.3 317 387.7 291 436.2 260C484.7 229 533.3 193 581.8 193C630.3 193 678.7 229 727.2 242C775.7 255 824.3 245 872.8 243C921.3 241 969.7 247 1018.2 243C1066.7 239 1115.3 225 1163.8 247C1212.3 269 1260.7 327 1309.2 338C1357.7 349 1406.3 313 1454.8 299C1503.3 285 1551.7 293 1575.8 297L1600 301L1600 245L1575.8 237C1551.7 229 1503.3 213 1454.8 215C1406.3 217 1357.7 237 1309.2 218C1260.7 199 1212.3 141 1163.8 119C1115.3 97 1066.7 111 1018.2 123C969.7 135 921.3 145 872.8 150C824.3 155 775.7 155 727.2 143C678.7 131 630.3 107 581.8 108C533.3 109 484.7 135 436.2 162C387.7 189 339.3 217 290.8 208C242.3 199 193.7 153 145.2 154C96.7 155 48.3 203 24.2 227L0 251Z" fill="#e4e7e8"></path><path d="M0 487L24.2 484C48.3 481 96.7 475 145.2 467C193.7 459 242.3 449 290.8 443C339.3 437 387.7 435 436.2 433C484.7 431 533.3 429 581.8 422C630.3 415 678.7 403 727.2 405C775.7 407 824.3 423 872.8 423C921.3 423 969.7 407 1018.2 411C1066.7 415 1115.3 439 1163.8 456C1212.3 473 1260.7 483 1309.2 481C1357.7 479 1406.3 465 1454.8 448C1503.3 431 1551.7 411 1575.8 401L1600 391L1600 299L1575.8 295C1551.7 291 1503.3 283 1454.8 297C1406.3 311 1357.7 347 1309.2 336C1260.7 325 1212.3 267 1163.8 245C1115.3 223 1066.7 237 1018.2 241C969.7 245 921.3 239 872.8 241C824.3 243 775.7 253 727.2 240C678.7 227 630.3 191 581.8 191C533.3 191 484.7 227 436.2 258C387.7 289 339.3 315 290.8 303C242.3 291 193.7 241 145.2 241C96.7 241 48.3 291 24.2 316L0 341Z" fill="#edeff0"></path><path d="M0 541L24.2 535C48.3 529 96.7 517 145.2 512C193.7 507 242.3 509 290.8 510C339.3 511 387.7 511 436.2 508C484.7 505 533.3 499 581.8 496C630.3 493 678.7 493 727.2 499C775.7 505 824.3 517 872.8 517C921.3 517 969.7 505 1018.2 507C1066.7 509 1115.3 525 1163.8 531C1212.3 537 1260.7 533 1309.2 525C1357.7 517 1406.3 505 1454.8 499C1503.3 493 1551.7 493 1575.8 493L1600 493L1600 389L1575.8 399C1551.7 409 1503.3 429 1454.8 446C1406.3 463 1357.7 477 1309.2 479C1260.7 481 1212.3 471 1163.8 454C1115.3 437 1066.7 413 1018.2 409C969.7 405 921.3 421 872.8 421C824.3 421 775.7 405 727.2 403C678.7 401 630.3 413 581.8 420C533.3 427 484.7 429 436.2 431C387.7 433 339.3 435 290.8 441C242.3 447 193.7 457 145.2 465C96.7 473 48.3 479 24.2 482L0 485Z" fill="#f0f1f3"></path><path d="M0 601L24.2 601C48.3 601 96.7 601 145.2 601C193.7 601 242.3 601 290.8 601C339.3 601 387.7 601 436.2 601C484.7 601 533.3 601 581.8 601C630.3 601 678.7 601 727.2 601C775.7 601 824.3 601 872.8 601C921.3 601 969.7 601 1018.2 601C1066.7 601 1115.3 601 1163.8 601C1212.3 601 1260.7 601 1309.2 601C1357.7 601 1406.3 601 1454.8 601C1503.3 601 1551.7 601 1575.8 601L1600 601L1600 491L1575.8 491C1551.7 491 1503.3 491 1454.8 497C1406.3 503 1357.7 515 1309.2 523C1260.7 531 1212.3 535 1163.8 529C1115.3 523 1066.7 507 1018.2 505C969.7 503 921.3 515 872.8 515C824.3 515 775.7 503 727.2 497C678.7 491 630.3 491 581.8 494C533.3 497 484.7 503 436.2 506C387.7 509 339.3 509 290.8 508C242.3 507 193.7 505 145.2 510C96.7 515 48.3 527 24.2 533L0 539Z" fill="#f3f4f5"></path></svg>