<svg id="visual" viewBox="0 0 700 750" width="700" height="750" xmlns="http://www.w3.org/2000/svg" xmlns:xlink="http://www.w3.org/1999/xlink" version="1.1"><rect x="0" y="0" width="700" height="750" fill="#ffffff"></rect><path d="M227 750L244.2 725C261.3 700 295.7 650 318 600C340.3 550 350.7 500 340.2 450C329.7 400 298.3 350 315 300C331.7 250 396.3 200 423.5 150C450.7 100 440.3 50 435.2 25L430 0L700 0L700 25C700 50 700 100 700 150C700 200 700 250 700 300C700 350 700 400 700 450C700 500 700 550 700 600C700 650 700 700 700 725L700 750Z" fill="#888277" stroke-linecap="round" stroke-linejoin="miter"></path></svg>